<svg width="44" height="44" viewBox="0 0 44 44" fill="none" xmlns="http://www.w3.org/2000/svg">
<path d="M11.8 26L9.6 28.3C9.1 25.4 8.9 20.8 11.8 17.1V26ZM11.4 30.1C14.1 30.6 18.6 30.8 22 27.8H13.5L11.4 30.1ZM16.7 13.9C15.9 14.1 15 14.4 14.3 14.8V23.3L16.7 20.7V13.9ZM19.2 13.6V18.2L23.2 14C22.1 13.7 20.7 13.5 19.2 13.6V13.6ZM16 25.2H24.1C24.5 24.4 24.8 23.5 25 22.6H18.4L16 25.2ZM44 19.1V25C44 29.3 40.7 32.8 36.6 32.8H34.8V35.7C34.8 40.3 31.2 44 26.9 44H7.9C3.6 44 0 40.3 0 35.7V0H34.8V11.4H36.6C40.7 11.4 44 14.9 44 19.1V19.1ZM27.8 20C27.9 17.4 27.4 15 27 13.6C26.8 12.7 26.6 12.2 26.6 12.2C26.6 12.2 26.1 12 25.2 11.8C23.8 11.4 21.6 10.9 19.1 11C18.3 11 17.4 11.1 16.6 11.3C15.8 11.5 15 11.7 14.2 12C13.3 12.4 12.5 12.8 11.7 13.5C11.1 14 10.6 14.5 10.1 15.1C5.6 20.5 6.7 27.6 7.5 30.6C7.7 31.5 7.9 32 7.9 32C7.9 32 8.4 32.2 9.3 32.4C12.1 33.2 18.9 34.4 24 29.7C24.6 29.2 25.1 28.6 25.5 28C26.1 27.2 26.5 26.3 26.9 25.4C27.2 24.6 27.4 23.7 27.6 22.8C27.7 21.7 27.8 20.9 27.8 20V20ZM41 19.1C41 16.5 39 14.5 36.6 14.5H34.8V29.6H36.6C39 29.6 41 27.5 41 25V19.1ZM21 20H25.4C25.4 18.4 25.3 17 25 15.8L21 20Z" fill="white"/>
</svg>
