<svg width="48" height="48" viewBox="0 0 48 48" fill="none" xmlns="http://www.w3.org/2000/svg">
<path d="M17.3128 38.5938C16.9791 38.6559 16.8333 38.8126 16.8751 39.0623C16.9167 39.3122 17.1042 39.3958 17.4375 39.3122C17.7712 39.229 17.9169 39.0829 17.875 38.8747C17.8336 38.6457 17.6461 38.5518 17.3128 38.5938Z" fill="white"/>
<path d="M15.5315 38.844C15.1981 38.844 15.0315 38.9579 15.0315 39.1876C15.0315 39.4584 15.2087 39.5726 15.5626 39.531C15.896 39.531 16.0629 39.4164 16.0629 39.1876C16.0629 38.9171 15.8857 38.8021 15.5315 38.844Z" fill="white"/>
<path d="M13.094 38.7495C13.0108 38.9788 13.1463 39.1347 13.5002 39.2184C13.8127 39.3429 14.0107 39.2806 14.0938 39.0308C14.1565 38.802 14.021 38.6357 13.6877 38.5308C13.3751 38.4478 13.1773 38.5197 13.094 38.7495Z" fill="white"/>
<path d="M45.3593 2.64038C43.5988 0.880237 41.4795 0 38.9998 0H8.99994C6.52101 0 4.40097 0.880237 2.64039 2.64038C0.880238 4.40086 0 6.52089 0 8.99994V39.0002C0 41.4794 0.880238 43.5992 2.64039 45.3594C4.40086 47.1198 6.52101 48.0001 8.99994 48.0001H15.9999C16.4579 48.0001 16.8019 47.9843 17.031 47.9537C17.26 47.9221 17.489 47.7866 17.7183 47.5468C17.9477 47.3074 18.062 46.9584 18.062 46.5002C18.062 46.438 18.0565 45.729 18.0462 44.3749C18.0356 43.0204 18.0304 41.9477 18.0304 41.1559L17.3116 41.281C16.8533 41.3641 16.2752 41.4008 15.5772 41.3903C14.8795 41.3798 14.1554 41.3071 13.4055 41.1716C12.6552 41.036 11.9575 40.7236 11.3116 40.2345C10.6661 39.7444 10.2078 39.104 9.93688 38.3125L9.62428 37.5933C9.41598 37.1147 9.08806 36.5832 8.64006 36.0003C8.19206 35.4167 7.73902 35.0208 7.28073 34.8125L7.06193 34.6562C6.91625 34.5521 6.78085 34.4266 6.65575 34.2809C6.53086 34.1348 6.43716 33.9887 6.37466 33.8434C6.31217 33.6973 6.36405 33.5774 6.53086 33.4834C6.69767 33.3898 6.99943 33.3434 7.43715 33.3434L8.06191 33.437C8.47872 33.5202 8.99403 33.7699 9.60895 34.1869C10.2234 34.6034 10.7286 35.145 11.1245 35.8115C11.6039 36.6659 12.1815 37.3165 12.8589 37.7645C13.5358 38.2129 14.2182 38.4369 14.9056 38.4369C15.593 38.4369 16.1867 38.3848 16.6869 38.281C17.1865 38.1766 17.6553 38.02 18.093 37.8117C18.2805 36.416 18.791 35.3425 19.6241 34.5926C18.4367 34.4675 17.3691 34.2802 16.4209 34.03C15.4732 33.7798 14.4939 33.3738 13.4837 32.8111C12.473 32.2485 11.6345 31.5511 10.9678 30.7172C10.3013 29.8834 9.7542 28.7897 9.32744 27.436C8.90045 26.0815 8.6869 24.5188 8.6869 22.7481C8.6869 20.2275 9.51011 18.0813 11.1559 16.3107C10.3849 14.4149 10.4577 12.2902 11.3745 9.93578C11.9787 9.74817 12.8747 9.88893 14.062 10.3577C15.2496 10.8269 16.1191 11.228 16.6714 11.5609C17.2237 11.8938 17.6663 12.1753 17.9997 12.4048C19.9376 11.8631 21.9374 11.5923 23.9998 11.5923C26.062 11.5923 28.0622 11.8631 30.0002 12.4048L31.1877 11.6548C32.0005 11.1546 32.9587 10.6963 34.063 10.2798C35.1672 9.86321 36.0107 9.7485 36.5943 9.93611C37.5315 12.2905 37.6153 14.4152 36.8438 16.3109C38.4896 18.0818 39.313 20.2278 39.313 22.7485C39.313 24.5195 39.0994 26.0874 38.6725 27.4516C38.2458 28.8162 37.694 29.9103 37.0164 30.7332C36.3395 31.5562 35.4956 32.2484 34.4854 32.8113C33.4749 33.3736 32.4957 33.7803 31.5476 34.0298C30.5996 34.28 29.5321 34.468 28.3446 34.5932C29.4272 35.5303 29.9688 37.009 29.9688 39.0302V46.4992C29.9688 46.8535 30.0205 47.1398 30.1247 47.3586C30.2295 47.5773 30.3959 47.7279 30.625 47.8118C30.8551 47.895 31.0572 47.947 31.2348 47.9677C31.4123 47.9886 31.667 47.9991 32.0004 47.9991H39.0004C41.4793 47.9991 43.5995 47.1189 45.3592 45.3584C47.1197 43.5979 47.9999 41.4778 47.9999 38.9988V8.99994C47.9997 6.52089 47.1194 4.40053 45.3593 2.64038Z" fill="white"/>
<path d="M9.49992 34.9376C9.35424 35.0413 9.37504 35.208 9.56253 35.4372C9.77115 35.6454 9.93763 35.6768 10.0627 35.5308C10.2084 35.427 10.1876 35.2603 9.9998 35.0307C9.79162 34.8435 9.62503 34.8121 9.49992 34.9376Z" fill="white"/>
<path d="M8.46897 34.1562C8.40658 34.3024 8.47947 34.4275 8.68777 34.5312C8.85425 34.6357 8.99008 34.6152 9.09395 34.469C9.15634 34.3229 9.08344 34.1978 8.87515 34.0933C8.66686 34.0307 8.53146 34.0517 8.46897 34.1562Z" fill="white"/>
<path d="M10.4689 36.1564C10.2812 36.2601 10.2812 36.4482 10.4689 36.7187C10.6564 36.9899 10.8332 37.0626 11.0001 36.9374C11.1877 36.7913 11.1877 36.5934 11.0001 36.3433C10.8336 36.0732 10.6564 36.0099 10.4689 36.1564Z" fill="white"/>
<path d="M11.5629 37.5622C11.3753 37.7292 11.4167 37.9263 11.6879 38.1563C11.9376 38.4058 12.146 38.4372 12.3127 38.2492C12.4795 38.083 12.4378 37.8852 12.1877 37.656C11.938 37.4064 11.7296 37.3749 11.5629 37.5622Z" fill="white"/>
</svg>
