<svg width="48" height="48" viewBox="0 0 48 48" fill="none" xmlns="http://www.w3.org/2000/svg">
<path d="M35.3234 0H12.6766C5.568 0 0 5.568 0 12.6766V35.3234C0 42.432 5.568 48 12.6766 48H35.3234C42.432 48 48 42.432 48 35.3234V12.6766C48 5.568 42.4305 0 35.3234 0ZM44.9032 35.3234C44.9032 40.6963 40.6947 44.9032 35.3234 44.9032H12.6766C7.30529 44.9032 3.09677 40.6947 3.09677 35.3234V12.6766C3.09677 7.30529 7.30529 3.09677 12.6766 3.09677H35.3234C40.6963 3.09677 44.9032 7.30529 44.9032 12.6766V35.3234Z" fill="white"/>
<path d="M39.0952 12.2555C38.5982 11.8916 37.9324 11.8607 37.4013 12.1703C36.8717 12.4816 35.698 12.6349 34.7566 12.7587C34.5615 12.785 34.3695 12.8098 34.1837 12.8361C32.866 11.743 31.1829 11.1298 29.4472 11.1298C25.5375 11.1298 22.3293 14.1554 22.1017 17.9613C18.5558 17.3636 15.3089 15.5149 13.008 12.737C12.6658 12.3221 12.1347 12.1192 11.5989 12.1889C11.0663 12.2632 10.6111 12.6085 10.3958 13.1009C10.2968 13.327 9.43275 15.4529 9.43275 20.7112C9.43275 25.265 13.0266 28.6111 15.4916 30.3716C13.8054 31.1381 11.8622 31.4199 10.0165 31.2155C9.29494 31.1381 8.61985 31.5623 8.38139 32.2421C8.14294 32.9234 8.40617 33.679 9.01623 34.0645C11.9272 35.9009 15.2918 36.8718 18.7478 36.8718C29.8467 36.8718 36.5636 28.1528 36.8129 19.5561C37.1318 19.0932 37.7404 18.192 38.7685 16.6111C39.1804 15.9747 39.5257 14.6029 39.6944 13.8426C39.8291 13.2418 39.5922 12.6178 39.0952 12.2555ZM34.0196 18.1487C33.8291 18.4119 33.7254 18.7309 33.7254 19.056C33.7254 25.1675 29.0787 33.775 18.7494 33.775C17.8157 33.775 16.8898 33.6898 15.9824 33.5226C17.1933 33.0643 18.3375 32.4248 19.3889 31.615C19.81 31.2914 20.0346 30.7711 19.985 30.2431C19.9355 29.7151 19.618 29.2475 19.1427 29.0075C19.0761 28.9734 12.5311 25.5314 12.5311 20.7128C12.5311 19.0978 12.6178 17.8281 12.7324 16.862C15.7718 19.4787 19.6397 21.0441 23.7104 21.2454C23.7414 21.247 23.7739 21.2485 23.8033 21.247C24.7045 21.2207 25.3672 20.5595 25.3672 19.6986C25.3672 19.4849 25.3238 19.2821 25.2449 19.0963C25.2062 18.864 25.186 18.6302 25.186 18.3964C25.186 16.097 27.0967 14.2266 29.4472 14.2266C30.6271 14.2266 31.762 14.7097 32.5626 15.5505C32.928 15.9314 33.4622 16.1032 33.9778 16.0026C34.3293 15.936 34.7349 15.8834 35.1608 15.8276C35.3125 15.8075 35.4658 15.7874 35.6222 15.7657C34.4593 17.537 34.0397 18.1208 34.0196 18.1487Z" fill="white"/>
</svg>
